<svg xmlns="http://www.w3.org/2000/svg" viewBox="0 0 32 32" stroke="none">
  <rect x="0" y="0" width="32" height="32" fill="rgb(42.745098%,64.705882%,26.666667%)" />
  <path d="M 16 6.261719 L 29.21875 16 L 16 25.738281 L 2.78125 16 Z M 16 6.261719 " fill="rgb(100%,85.490196%,26.666667%)" />
  <path d="M 16 21.5625 C 19.070312 21.5625 21.5625 19.070312 21.5625 16 C 21.5625 12.929688 19.070312 10.4375 16 10.4375 C 12.929688 10.4375 10.4375 12.929688 10.4375 16 C 10.4375 19.070312 12.929688 21.5625 16 21.5625 Z M 16 21.5625" fill="rgb(93.333333%,93.333333%,93.333333%)" />
  <path d="M 21.5625 16 C 21.5625 16.363281 21.53125 16.71875 21.460938 17.0625 C 18.730469 14.234375 14.738281 13.007812 10.886719 13.8125 C 11.929688 11.386719 14.53125 10.023438 17.117188 10.554688 C 19.703125 11.085938 21.558594 13.359375 21.5625 16 Z M 10.4375 16.074219 C 14.132812 14.917969 18.15625 16.15625 20.5625 19.1875 C 19.179688 21.171875 16.671875 22.035156 14.359375 21.320312 C 12.046875 20.609375 10.460938 18.480469 10.4375 16.0625 Z M 10.4375 16.074219" fill="rgb(0%,32.156863%,70.588235%)" />
</svg>