<svg xmlns="http://www.w3.org/2000/svg" viewBox="0 0 32 32" stroke="none">
  <path d="M 32 8 L 32 24 L 0 24 L 0 8 Z M 32 8" fill="rgb(100%,85.490196%,26.666667%)" />
  <path d="M 32 23 L 32 32 L 0 32 L 0 23 Z M 32 0 L 32 9 L 0 9 L 0 0 Z M 32 0" fill="rgb(84.705882%,0%,15.294118%)" />
  <path d="M 9 19 L 8 19 L 8 14 L 9 14 Z M 17 19 L 18 19 L 18 14 L 17 14 Z M 17 19" fill="rgb(93.333333%,93.333333%,93.333333%)" />
  <path d="M 7.625 15.5 C 7.488281 15.5 7.375 15.613281 7.375 15.75 C 7.375 15.886719 7.488281 16 7.625 16 L 18.375 16 C 18.511719 16 18.625 15.886719 18.625 15.75 C 18.625 15.613281 18.511719 15.5 18.375 15.5 Z M 7.625 17 C 7.488281 17 7.375 17.113281 7.375 17.25 C 7.375 17.386719 7.488281 17.5 7.625 17.5 L 9.375 17.5 C 9.511719 17.5 9.625 17.386719 9.625 17.25 C 9.625 17.113281 9.511719 17 9.375 17 Z M 16.625 17 C 16.488281 17 16.375 17.113281 16.375 17.25 C 16.375 17.386719 16.488281 17.5 16.625 17.5 L 18.375 17.5 C 18.511719 17.5 18.625 17.386719 18.625 17.25 C 18.625 17.113281 18.511719 17 18.375 17 Z M 16.625 17" fill="rgb(84.705882%,0%,15.294118%)" />
  <path d="M 12.25 10.5 C 11.8125 10.5 11.4375 10.8125 11.3125 11.1875 L 11 11.125 C 10.4375 11.125 10 11.5625 10 12.125 C 10 12.6875 10.4375 13.125 11 13.125 C 11.4375 13.125 11.8125 12.875 11.9375 12.4375 C 12.308594 12.570312 12.726562 12.472656 13 12.1875 C 13.273438 12.472656 13.691406 12.570312 14.0625 12.4375 C 14.1875 12.824219 14.53125 13.097656 14.9375 13.128906 C 15.34375 13.160156 15.726562 12.941406 15.910156 12.578125 C 16.089844 12.214844 16.035156 11.777344 15.765625 11.472656 C 15.5 11.167969 15.070312 11.054688 14.6875 11.1875 C 14.566406 10.859375 14.277344 10.617188 13.933594 10.554688 C 13.585938 10.488281 13.234375 10.609375 13 10.875 C 12.8125 10.625 12.5625 10.5 12.25 10.5 Z M 12.25 11 C 12.5625 11 12.75 11.25 12.75 11.5 C 12.75 11.8125 12.5625 12 12.25 12 C 12 12 11.75 11.8125 11.75 11.5 C 11.75 11.25 12 11 12.25 11 Z M 13.75 11 C 14.0625 11 14.25 11.25 14.25 11.5 C 14.25 11.8125 14.0625 12 13.75 12 C 13.5 12 13.25 11.8125 13.25 11.5 C 13.25 11.25 13.5 11 13.75 11 Z M 11 11.625 L 11.25 11.6875 L 11.5 12.1875 C 11.5 12.4375 11.25 12.625 11 12.625 C 10.75 12.625 10.5 12.4375 10.5 12.125 C 10.5 11.875 10.75 11.625 11 11.625 Z M 15 11.625 C 15.3125 11.625 15.5 11.875 15.5 12.125 C 15.5 12.4375 15.3125 12.625 15 12.625 C 14.75 12.625 14.5 12.4375 14.5 12.1875 L 14.75 11.6875 Z M 13 20.5 C 14.65625 20.5 16 19.605469 16 18.5 C 16 17.898438 15.605469 17.367188 14.980469 17 L 16 17 L 16 14 L 13 14 L 13 16.5 C 11.34375 16.5 10 17.394531 10 18.5 C 10 19.605469 11.34375 20.5 13 20.5 Z M 13 20.5" fill="rgb(93.333333%,93.333333%,93.333333%)" />
  <path d="M 12.5 10 L 13.5 10 L 13.5 12 L 12.5 12 Z M 12.5 10" fill="rgb(100%,59.607843%,6.666667%)" />
  <path d="M 15.5 13 L 15 13.5 L 11 13.5 L 10.5 13 C 10.5 12.1875 11.625 11.5 13 11.5 C 14.375 11.5 15.5 12.1875 15.5 13 Z M 8.5 12 C 8.777344 12 9 12.222656 9 12.5 L 9 13 C 9 13.277344 8.777344 13.5 8.5 13.5 C 8.222656 13.5 8 13.277344 8 13 L 8 12.5 C 8 12.222656 8.222656 12 8.5 12 Z M 17.5 12 C 17.777344 12 18 12.222656 18 12.5 L 18 13 C 18 13.277344 17.777344 13.5 17.5 13.5 C 17.222656 13.5 17 13.277344 17 13 L 17 12.5 C 17 12.222656 17.222656 12 17.5 12 Z M 13 17 L 13 18.5 C 13 19.328125 13.671875 20 14.5 20 C 15.328125 20 16 19.328125 16 18.5 L 16 17 Z M 13 17 L 10 17 L 10 14 L 13 14 Z M 15.125 15.125 C 15.125 14.78125 14.84375 14.5 14.5 14.5 C 14.15625 14.5 13.875 14.78125 13.875 15.125 L 13.875 15.875 C 13.875 16.21875 14.15625 16.5 14.5 16.5 C 14.84375 16.5 15.125 16.21875 15.125 15.875 Z M 15.125 15.125" fill="rgb(84.705882%,0%,15.294118%)" />
  <path d="M 8 13 L 9 13 C 9.277344 13 9.5 13.222656 9.5 13.5 C 9.5 13.777344 9.277344 14 9 14 L 8 14 C 7.722656 14 7.5 13.777344 7.5 13.5 C 7.5 13.222656 7.722656 13 8 13 Z M 17 13 L 18 13 C 18.277344 13 18.5 13.222656 18.5 13.5 C 18.5 13.777344 18.277344 14 18 14 L 17 14 C 16.722656 14 16.5 13.777344 16.5 13.5 C 16.5 13.222656 16.722656 13 17 13 Z M 9 19 L 8 19 C 7.722656 19 7.5 19.222656 7.5 19.5 C 7.5 19.777344 7.722656 20 8 20 L 9 20 C 9.277344 20 9.5 19.777344 9.5 19.5 C 9.5 19.222656 9.277344 19 9 19 Z M 17 19 L 18 19 C 18.277344 19 18.5 19.222656 18.5 19.5 C 18.5 19.777344 18.277344 20 18 20 L 17 20 C 16.722656 20 16.5 19.777344 16.5 19.5 C 16.5 19.222656 16.722656 19 17 19 Z M 10 17 L 10 18.5 C 10 19 10.25 19.375 10.5625 19.6875 L 10.875 19.3125 L 11.1875 19.9375 C 11.394531 19.988281 11.605469 19.988281 11.8125 19.9375 L 12.125 19.3125 L 12.4375 19.6875 C 12.8125 19.375 13 19 13 18.5 L 13 17 L 12.4375 17 L 12.125 17.5 L 11.8125 17 L 11.1875 17 L 10.875 17.5 L 10.5625 17 Z M 10.5 15 L 10.5 14.5 L 12.5 14.5 L 12.5 15 L 12 15 L 12 16 L 12.5 16 L 12.5 16.5 L 10.5 16.5 L 10.5 16 L 11 16 L 11 15 Z M 15 13.5 L 11 13.5 L 11 14 L 15 14 Z M 15 13.5" fill="rgb(100%,59.607843%,6.666667%)" />
  <path d="M 10.5625 17 L 10.5625 19.6875 C 10.75 19.8125 10.960938 19.898438 11.1875 19.9375 L 11.1875 17 Z M 11.8125 17 L 11.8125 19.9375 C 12.039062 19.898438 12.25 19.8125 12.4375 19.6875 L 12.4375 17 Z M 11.8125 17" fill="rgb(84.705882%,0%,15.294118%)" />
  <path d="M 11.625 13 C 11.832031 13 12 12.832031 12 12.625 C 12 12.417969 11.832031 12.25 11.625 12.25 C 11.417969 12.25 11.25 12.417969 11.25 12.625 C 11.25 12.832031 11.417969 13 11.625 13 Z M 13 13 C 13.207031 13 13.375 12.832031 13.375 12.625 C 13.375 12.417969 13.207031 12.25 13 12.25 C 12.792969 12.25 12.625 12.417969 12.625 12.625 C 12.625 12.832031 12.792969 13 13 13 Z M 14.75 12.625 C 14.75 12.832031 14.582031 13 14.375 13 C 14.167969 13 14 12.832031 14 12.625 C 14 12.417969 14.167969 12.25 14.375 12.25 C 14.582031 12.25 14.75 12.417969 14.75 12.625 Z M 14.75 12.625" fill="rgb(100%,85.490196%,26.666667%)" />
  <path d="M 13 18 C 13.550781 18 14 17.550781 14 17 C 14 16.449219 13.550781 16 13 16 C 12.449219 16 12 16.449219 12 17 C 12 17.550781 12.449219 18 13 18 Z M 18 20 L 17 20 C 16.722656 20 16.5 20.222656 16.5 20.5 C 16.5 20.777344 16.722656 21 17 21 L 18 21 C 18.277344 21 18.5 20.777344 18.5 20.5 C 18.5 20.222656 18.277344 20 18 20 Z M 8 20 L 9 20 C 9.277344 20 9.5 20.222656 9.5 20.5 C 9.5 20.777344 9.277344 21 9 21 L 8 21 C 7.722656 21 7.5 20.777344 7.5 20.5 C 7.5 20.222656 7.722656 20 8 20 Z M 8 20" fill="rgb(0%,32.156863%,70.588235%)" />
</svg>
