<svg xmlns="http://www.w3.org/2000/svg" viewBox="0 0 32 32" stroke="none">

<path d="M 8.5 32 L 8.5 0 L 23.5 0 L 23.5 32 Z M 8.5 32" fill="rgb(84.705882%,0%,15.294118%)" />
<path d="M 21.5 32 L 21.5 0 L 32 0 L 32 32 Z M 21.5 32" fill="rgb(84.705882%,0%,15.294118%)" />
<path d="M 0 32 L 0 0 L 10.5 0 L 10.5 32 Z M 0 32" fill="rgb(28.627451%,43.137255%,17.647059%)" />
<path d="M 10.4375 21.5625 C 13.507812 21.5625 16 19.070312 16 16 C 16 12.929688 13.507812 10.4375 10.4375 10.4375 C 7.367188 10.4375 4.875 12.929688 4.875 16 C 4.875 19.070312 7.367188 21.5625 10.4375 21.5625 Z M 10.4375 21.5625" fill="rgb(100%,85.490196%,26.666667%)" />
<path d="M 7.304688 13.21875 L 7.304688 16.6875 C 7.304688 18.414062 8.707031 19.816406 10.433594 19.816406 C 12.160156 19.816406 13.5625 18.414062 13.5625 16.6875 L 13.5625 13.210938 L 7.3125 13.210938 Z M 7.304688 13.21875" fill="rgb(84.705882%,0%,15.294118%)" />
<path d="M 10.4375 17.738281 C 9.863281 17.738281 9.394531 17.269531 9.394531 16.695312 L 9.394531 15.3125 L 11.480469 15.3125 L 11.480469 16.6875 C 11.480469 17.261719 11.011719 17.730469 10.4375 17.730469 Z M 10.4375 17.738281" fill="rgb(93.333333%,93.333333%,93.333333%)" />
</svg>