<svg xmlns="http://www.w3.org/2000/svg" viewBox="0 0 32 32" stroke="none">
  <rect x="0" y="0" width="32" height="32" style="fill:rgb(93.333333%,93.333333%,93.333333%);"/>
  <path d="M 0 7.648438 L 0 3.480469 L 32 3.480469 L 32 7.648438 Z M 0 16 L 0 11.824219 L 32 11.824219 L 32 16 Z M 0 24.351562 L 0 20.175781 L 32 20.175781 L 32 24.351562 Z M 0 32 L 32 32 L 32 28.519531 L 0 28.519531 Z M 0 32" fill="rgb(84.705882%,0%,15.294118%)" />
  <path d="M 0 0 L 16 0 L 16 16 L 0 16 Z M 0 0" fill="rgb(0%,32.156863%,70.588235%)" />
  <path d="M 2.800781 0.398438 L 3.335938 2.054688 L 5.085938 2.054688 L 3.664062 3.082031 L 4.210938 4.75 L 2.800781 3.71875 L 1.386719 4.742188 L 1.9375 3.082031 L 0.519531 2.0625 L 2.261719 2.0625 L 2.800781 0.40625 Z M 8 0.398438 L 8.539062 2.054688 L 10.289062 2.054688 L 8.867188 3.082031 L 9.414062 4.742188 L 8 3.71875 L 6.585938 4.742188 L 7.125 3.082031 L 5.71875 2.0625 L 7.460938 2.0625 Z M 13.738281 2.054688 L 13.199219 0.398438 L 12.664062 2.054688 L 10.914062 2.054688 L 12.332031 3.082031 L 11.789062 4.742188 L 13.199219 3.71875 L 14.613281 4.742188 L 14.070312 3.082031 L 15.488281 2.0625 L 13.742188 2.0625 Z M 2.800781 5.601562 L 3.335938 7.257812 L 5.085938 7.257812 L 3.667969 8.28125 L 4.210938 9.945312 L 2.800781 8.917969 L 1.386719 9.9375 L 1.929688 8.273438 L 0.519531 7.25 L 2.261719 7.25 L 2.800781 5.59375 Z M 8.539062 7.257812 L 8 5.601562 L 7.460938 7.257812 L 5.710938 7.257812 L 7.125 8.28125 L 6.585938 9.945312 L 8 8.917969 L 9.414062 9.945312 L 8.867188 8.28125 L 10.28125 7.257812 Z M 13.199219 5.601562 L 13.738281 7.257812 L 15.488281 7.257812 L 14.0625 8.28125 L 14.605469 9.945312 L 13.195312 8.917969 L 11.78125 9.945312 L 12.324219 8.28125 L 10.914062 7.257812 L 12.65625 7.257812 L 13.195312 5.601562 Z M 3.335938 12.457031 L 2.800781 10.800781 L 2.261719 12.457031 L 0.511719 12.457031 L 1.9375 13.480469 L 1.394531 15.144531 L 2.804688 14.117188 L 4.21875 15.144531 L 3.675781 13.480469 L 5.085938 12.457031 Z M 8 10.800781 L 8.539062 12.457031 L 10.289062 12.457031 L 8.867188 13.480469 L 9.414062 15.144531 L 8 14.117188 L 6.585938 15.144531 L 7.125 13.480469 L 5.71875 12.457031 L 7.460938 12.457031 Z M 13.738281 12.457031 L 13.199219 10.800781 L 12.664062 12.457031 L 10.914062 12.457031 L 12.332031 13.480469 L 11.789062 15.144531 L 13.199219 14.117188 L 14.613281 15.144531 L 14.070312 13.480469 L 15.480469 12.457031 Z M 13.738281 12.457031" fill="rgb(93.333333%,93.333333%,93.333333%)" />
</svg>