<svg xmlns="http://www.w3.org/2000/svg" width="36" height="36" viewBox="0 0 36 36">
  <path d="M 16 2.664062 C 23.367188 2.664062 29.335938 8.632812 29.335938 16 C 29.335938 23.363281 23.367188 29.332031 16 29.332031 C 8.632812 29.335938 2.667969 23.363281 2.667969 16 C 2.664062 8.632812 8.632812 2.664062 16 2.664062 Z M 19.921875 22 L 12.082031 22 C 12.949219 25.21875 14.460938 27.335938 16 27.335938 C 17.539062 27.335938 19.050781 25.21875 19.917969 22 Z M 10.011719 22 L 6.378906 22 C 7.667969 24.058594 9.582031 25.652344 11.839844 26.546875 C 11.144531 25.453125 10.570312 24.085938 10.148438 22.527344 Z M 25.621094 22 L 21.992188 22 C 21.558594 23.78125 20.933594 25.332031 20.160156 26.546875 C 22.277344 25.710938 24.09375 24.257812 25.375 22.378906 Z M 9.457031 13.332031 L 4.980469 13.332031 L 4.976562 13.355469 C 4.769531 14.222656 4.664062 15.109375 4.667969 16 C 4.664062 17.367188 4.910156 18.722656 5.390625 20 L 9.621094 20 C 9.425781 18.675781 9.332031 17.339844 9.332031 16 C 9.332031 15.089844 9.375 14.195312 9.460938 13.332031 Z M 20.53125 13.332031 L 11.46875 13.332031 C 11.234375 15.554688 11.296875 17.796875 11.652344 20 L 20.347656 20 C 20.703125 17.796875 20.765625 15.554688 20.53125 13.332031 Z M 27.019531 13.332031 L 22.542969 13.332031 C 22.625 14.195312 22.667969 15.089844 22.667969 16 C 22.671875 17.339844 22.574219 18.675781 22.378906 20 L 26.609375 20 C 27.089844 18.722656 27.335938 17.367188 27.335938 16 C 27.335938 15.082031 27.226562 14.1875 27.019531 13.332031 Z M 11.839844 5.449219 L 11.808594 5.460938 C 9.078125 6.550781 6.878906 8.65625 5.667969 11.332031 L 9.730469 11.332031 C 10.148438 8.996094 10.878906 6.960938 11.839844 5.453125 Z M 16 4.664062 L 15.84375 4.667969 C 14.160156 4.828125 12.53125 7.496094 11.773438 11.332031 L 20.230469 11.332031 C 19.476562 7.507812 17.851562 4.839844 16.167969 4.671875 Z M 20.160156 5.449219 L 20.300781 5.683594 C 21.195312 7.164062 21.871094 9.113281 22.269531 11.332031 L 26.332031 11.332031 C 25.175781 8.777344 23.113281 6.742188 20.546875 5.613281 Z M 20.160156 5.449219 "/>
</svg>