<svg viewBox="0 0 64 64" width="24" height="24" xmlns="http://www.w3.org/2000/svg">
  <path d="M31.7291 29.233 31.6875 29.3409 30.5 30.6376 29.3125 31.9342 28.5544 32.7484 27.7963 33.5625 27.2921 34.125 26.7881 34.6875 25.144 36.464 23.5 38.2406 23.5 38.4104 23.5 38.5801 26.9067 42.0712 30.3135 45.5625 31.1773 46.4688 32.041 47.375 32.1806 47.375 32.3201 47.375 33.1289 46.4709 33.9375 45.5667 34.82 44.6271 35.7025 43.6875 36.195 43.129 36.6875 42.5706 37.625 41.5577 38.5625 40.545 39.5938 39.4066 40.625 38.2684 40.625 38.1202 40.625 37.9723 38.1538 35.4549 35.6824 32.9375 34.31 31.5072 32.9375 30.077 32.4585 29.601 31.9796 29.125 31.8753 29.125 31.7709 29.125 31.7291 29.233" stroke="none" fill="#595151" fill-rule="evenodd"/>
  <path d="M28.9854 13.4015 26.5625 16.053 25.5625 17.1235 24.5625 18.1941 24.1354 18.6908 23.7082 19.1875 22.9479 20.001 22.1875 20.8146 20.5 22.6855 18.8125 24.5562 17.9375 25.5012 17.0625 26.4462 14.875 28.8732 12.6875 31.3001 11.0625 33.0644 9.4375 34.8287 7.75 36.684 6.0625 38.5391 5.125 39.5334 4.1875 40.5276 4.1875 40.7536 4.1875 40.9795 5.625 42.463 7.0625 43.9465 8.5369 45.4733 10.0113 47 10.0994 46.9921 10.1875 46.9844 10.9057 46.1484 11.6239 45.3125 12.2807 44.6164 12.9375 43.9201 13.8716 42.8664 14.8057 41.8125 15.5721 41 16.3385 40.1875 16.8208 39.625 17.3031 39.0625 18.1202 38.1851 18.9375 37.3077 19.4375 36.7474 19.9375 36.187 21.2466 34.7497 22.5557 33.3125 23.4341 32.3735 24.3125 31.4345 24.8027 30.8735 25.2929 30.3125 26.2402 29.3061 27.1875 28.2997 27.6114 27.8061 28.0354 27.3125 28.7364 26.5579 29.4375 25.8032 30.6174 24.5123 31.7972 23.2214 32.4864 23.9545 33.1755 24.6875 34.8065 26.3809 36.4375 28.0741 37.0532 28.7559 37.6689 29.4375 39.7407 31.5665 41.8125 33.6954 44.1899 36.1915 46.5673 38.6875 47.6229 39.8125 48.6786 40.9375 51.183 43.5397 53.6875 46.142 53.7291 46.2585 53.7709 46.375 54.0016 46.375 54.2325 46.375 55.46 45.0365 56.6875 43.6981 57.7545 42.5677 58.8216 41.4375 59.3566 40.8375 59.8916 40.2375 59.8521 40.1284 59.8125 40.0191 59.2589 39.4159 58.7052 38.8125 57.696 37.75 56.6866 36.6875 53.5019 33.375 50.317 30.0625 49.1842 28.875 48.0514 27.6875 47.182 26.7504 46.3125 25.8134 44.808 24.2504 43.3035 22.6875 42.183 21.5008 41.0625 20.314 39.3744 18.5633 37.6864 16.8125 36.1244 15.1851 34.5625 13.5579 33.1989 12.1539 31.8351 10.75 31.6216 10.75 31.4082 10.75 28.9854 13.4015" stroke="none" fill="currentColor" fill-rule="evenodd"/>
</svg>