<svg viewBox="0 0 512 512" width="32" height="32" xmlns="http://www.w3.org/2000/svg">
  <path d="M250.229 99.909 249.508 101.777 228.952 124.224 208.396 146.669 195.272 160.763 182.149 174.856 173.421 184.593 164.697 194.331 136.236 225.083 107.777 255.838 107.777 258.777 107.777 261.714 166.749 322.148 225.724 382.585 240.676 398.273 255.628 413.96 258.045 413.96 260.459 413.96 274.46 398.31 288.458 382.657 303.734 366.392 319.011 350.127 327.537 340.459 336.062 330.793 352.291 313.259 368.52 295.728 386.372 276.021 404.223 256.319 404.223 253.753 404.223 251.193 361.445 207.615 318.663 164.037 294.906 139.277 271.147 114.519 262.855 106.28 254.565 98.04 252.759 98.04 250.952 98.04 250.229 99.909" fill="#595151" />
  <path d="M229.612 122.309 208.678 145.218 200.038 154.467 191.398 163.717 187.708 168.009 184.017 172.3 177.448 179.329 170.878 186.358 156.298 202.523 141.718 218.686 134.158 226.85 126.598 235.015 107.698 255.984 88.798 276.953 74.758 292.196 60.718 307.44 46.138 323.47 31.558 339.498 23.458 348.089 15.358 356.678 15.358 358.631 15.358 360.583 27.778 373.4 40.198 386.218 52.937 399.409 65.676 412.6 66.437 412.532 67.198 412.465 73.404 405.242 79.609 398.02 85.284 392.006 90.958 385.99 99.029 376.886 107.1 367.78 113.721 360.76 120.343 353.74 124.51 348.88 128.677 344.02 135.737 336.439 142.798 328.859 147.118 324.018 151.438 319.176 162.749 306.757 174.06 294.34 181.649 286.227 189.238 278.114 193.474 273.267 197.709 268.42 205.894 259.725 214.078 251.029 217.741 246.765 221.404 242.5 227.461 235.98 233.518 229.46 243.713 218.306 253.906 207.153 259.861 213.487 265.815 219.82 279.906 234.451 293.998 249.08 299.318 254.971 304.638 260.86 322.538 279.255 340.438 297.648 360.979 319.215 381.52 340.78 390.64 350.5 399.761 360.22 421.399 382.703 443.038 405.187 443.398 406.193 443.759 407.2 445.752 407.2 447.747 407.2 458.353 395.635 468.958 384.072 478.177 374.305 487.397 364.54 492.019 359.356 496.642 354.172 496.3 353.229 495.958 352.285 491.175 347.073 486.391 341.86 477.672 332.68 468.951 323.5 441.435 294.88 413.917 266.26 404.13 256 394.342 245.74 386.831 237.643 379.318 229.548 366.319 216.043 353.321 202.54 343.639 192.287 333.958 182.033 319.373 166.907 304.789 151.78 291.293 137.719 277.798 123.66 266.017 111.53 254.234 99.4 252.389 99.4 250.545 99.4 229.612 122.309" fill="currentColor" />
</svg>
