<svg viewBox="0 0 512 512" width="32" height="32" xmlns="http://www.w3.org/2000/svg">
  <path fill-rule="evenodd" clip-rule="evenodd" d="M6.52 106.312C6.52 64.977 40.029 31.468 81.364 31.468H430.636C471.973 31.468 505.48 64.977 505.48 106.312V330.844C505.48 372.181 471.973 405.688 430.636 405.688H280.948V430.636H330.844C344.623 430.636 355.792 441.805 355.792 455.584 355.792 469.363 344.623 480.532 330.844 480.532H181.156C167.377 480.532 156.208 469.363 156.208 455.584 156.208 441.805 167.377 430.636 181.156 430.636H231.052V405.688H81.364C40.029 405.688 6.52 372.181 6.52 330.844V106.312ZM81.364 81.364C67.585 81.364 56.416 92.533 56.416 106.312V330.844C56.416 344.623 67.585 355.792 81.364 355.792H430.636C444.415 355.792 455.584 344.623 455.584 330.844V106.312C455.584 92.533 444.415 81.364 430.636 81.364H81.364Z" fill="currentColor" />
</svg>
