<svg viewBox="0 0 512 512" width="32" height="32" xmlns="http://www.w3.org/2000/svg">
  <path fill-rule="evenodd" clip-rule="evenodd" d="M64.897 254.762C64.897 176.118 112.417 108.545 180.307 79.228 172.595 101.832 168.411 126.064 168.411 151.249 168.411 274.383 268.231 374.203 391.365 374.203 396.126 374.203 400.856 374.053 405.548 373.757 370.518 417.72 316.531 445.866 256 445.866 150.457 445.866 64.897 360.306 64.897 254.762ZM221.508 18.358C105.915 35.09 17.121 134.536 17.121 254.762 17.121 386.691 124.071 493.642 256 493.642 354.093 493.642 438.325 434.518 475.106 350.06L445.791 317.815C428.687 323.398 410.405 326.427 391.365 326.427 294.616 326.427 216.187 247.997 216.187 151.249 216.187 115.711 226.744 82.711 244.888 55.127L221.508 18.358ZM439.14 31.807V87.545H494.879V135.321H439.14V191.059H391.365V135.321H335.626V87.545H391.365V31.807H439.14Z" fill="currentColor" stroke-linejoin="round" />
</svg>
