<svg viewBox="0 0 512 512" width="24" height="16" xmlns="http://www.w3.org/2000/svg">
  <path fill-rule="evenodd" clip-rule="evenodd" d="M283-5V-32H229V-5 40 67H283V40-5ZM370.552 103.264 389.643 84.172 402.372 71.444 421.463 52.352 459.648 90.536 440.554 109.628 427.828 122.355 408.734 141.447 370.552 103.264ZM256 346C305.706 346 346 305.706 346 256 346 206.294 305.706 166 256 166 206.294 166 166 206.294 166 256 166 305.706 206.294 346 256 346ZM256 400C335.528 400 400 335.528 400 256 400 176.471 335.528 112 256 112 176.471 112 112 176.471 112 256 112 335.528 176.471 400 256 400ZM445 229H472 517 544V283H517 472 445V229ZM-5 229H-32V283H-5 40 67V229H40-5ZM71.445 402.372 52.353 421.463 90.537 459.648 109.629 440.554 122.357 427.828 141.449 408.734 103.265 370.552 84.173 389.643 71.445 402.372ZM103.265 141.447 84.173 122.355 71.445 109.628 52.353 90.536 90.537 52.352 109.629 71.444 122.356 84.172 141.449 103.264 103.265 141.447ZM402.372 440.554 421.463 459.648 459.648 421.463 440.554 402.372 427.828 389.643 408.734 370.552 370.552 408.734 389.643 427.828 402.372 440.554ZM283 445V472 517 544H229V517 472 445H283Z" fill="currentColor" stroke-linejoin="round" />
</svg>
