<svg viewBox="0 0 512 512" fill="none" xmlns="http://www.w3.org/2000/svg">
  <path d="M37.408 92.056 474.592 92.056M365.296 92.056 357.902 69.871C350.735 48.372 347.15 37.622 340.505 29.675 334.636 22.657 327.1 17.224 318.586 13.876 308.943 10.084 297.614 10.084 274.952 10.084L237.048 10.084C214.386 10.084 203.057 10.084 193.415 13.876 184.901 17.224 177.364 22.657 171.495 29.675 164.849 37.622 161.266 48.372 154.099 69.871L146.704 92.056M419.944 92.056 419.944 370.761C419.944 416.671 419.944 439.623 411.009 457.159 403.151 472.584 390.612 485.123 375.187 492.981 357.651 501.916 334.699 501.916 288.789 501.916L223.211 501.916C177.303 501.916 154.348 501.916 136.814 492.981 121.389 485.123 108.849 472.584 100.99 457.159 92.056 439.623 92.056 416.671 92.056 370.761L92.056 92.056M310.648 201.352 310.648 392.62M201.352 201.352 201.352 392.62" stroke="currentColor" stroke-width="48" stroke-linecap="round" stroke-linejoin="round" />
</svg>
